<?xml version="1.0" standalone="no"?>
<!DOCTYPE svg PUBLIC "-//W3C//DTD SVG 20010904//EN"
 "http://www.w3.org/TR/2001/REC-SVG-20010904/DTD/svg10.dtd">
<svg version="1.0" xmlns="http://www.w3.org/2000/svg"
 width="480.000000pt" height="480.000000pt" viewBox="0 0 480.000000 480.000000"
 preserveAspectRatio="xMidYMid meet">

<g transform="translate(0.000000,480.000000) scale(0.100000,-0.100000)"
fill="#000000" stroke="none">
<path d="M1810 4116 c-39 -76 -48 -86 -94 -109 -51 -25 -52 -25 -86 -6 -89 47
-157 61 -268 57 -99 -4 -111 -6 -164 -36 -58 -34 -101 -73 -65 -59 10 4 25 7
33 7 8 0 14 6 14 13 0 8 23 24 52 38 45 21 66 24 162 24 111 -1 111 -1 194
-43 68 -35 85 -40 96 -29 7 7 32 21 55 32 37 16 47 28 79 97 20 43 43 78 50
78 7 0 42 -23 79 -52 104 -81 141 -99 172 -85 14 7 34 19 43 27 10 9 58 32
108 53 138 56 239 50 390 -22 36 -17 70 -31 76 -31 6 0 21 12 35 26 37 40 73
54 138 54 76 0 101 -11 128 -58 26 -47 73 -184 73 -217 0 -27 19 -75 30 -75 4
0 2 17 -6 38 -7 20 -13 46 -14 58 0 11 -9 49 -20 83 -12 34 -18 71 -14 83 3
12 29 31 62 46 54 25 65 27 207 26 206 -2 278 -15 247 -46 -17 -17 -15 -73 5
-89 10 -9 52 -16 112 -19 86 -5 101 -8 138 -35 51 -36 71 -74 79 -152 l6 -58
-73 -37 c-41 -20 -83 -39 -94 -43 -17 -6 -15 -10 20 -26 22 -10 46 -19 53 -19
24 0 137 -52 160 -73 46 -42 54 -76 50 -204 -3 -109 -6 -123 -36 -183 -18 -36
-51 -85 -73 -110 -55 -61 -96 -123 -84 -127 86 -33 104 -63 54 -89 -28 -14
-54 -15 -188 -10 -86 4 -180 8 -210 9 -39 1 -56 -2 -61 -13 -4 -8 -18 -37 -31
-63 -27 -58 -61 -87 -100 -87 -15 0 -61 7 -101 16 -95 21 -200 19 -255 -6 -24
-10 -43 -23 -43 -29 0 -6 7 -8 15 -5 8 4 15 9 15 13 0 13 75 31 128 31 28 0
84 -7 124 -16 146 -33 194 -15 240 92 13 30 30 56 38 59 8 3 42 0 75 -5 33 -5
126 -10 207 -10 140 0 148 1 174 23 18 16 25 30 21 40 -6 15 -55 51 -81 60
-10 3 33 75 57 95 13 11 22 9 57 -13 22 -14 48 -33 58 -43 9 -9 36 -31 60 -48
l42 -31 -33 -49 c-18 -27 -50 -76 -70 -109 -23 -38 -52 -70 -79 -87 -24 -15
-69 -51 -100 -80 -77 -72 -80 -74 -110 -81 -29 -8 -52 8 -63 43 -9 29 -70 56
-141 65 l-60 7 -41 -40 c-47 -45 -73 -118 -73 -200 0 -57 -22 -117 -47 -130
-10 -6 -42 -13 -71 -17 -28 -4 -50 -10 -47 -15 4 -7 29 -4 111 15 35 8 53 48
69 161 18 117 24 135 63 176 22 24 33 28 81 27 86 0 122 -17 146 -66 17 -37
25 -43 50 -43 36 0 61 16 135 85 30 28 75 64 100 80 25 16 55 37 66 48 16 13
34 17 70 15 l49 -3 3 -44 c3 -43 -23 -121 -40 -121 -5 0 -8 -5 -8 -10 0 -6 -9
-20 -20 -32 -11 -12 -20 -32 -20 -44 0 -13 -4 -26 -10 -29 -5 -3 -10 -13 -10
-22 0 -8 -13 -32 -29 -52 -51 -64 -156 -74 -392 -36 -44 7 -79 9 -79 4 0 -19
186 -42 307 -38 101 4 114 7 137 28 l26 24 66 -28 c70 -30 182 -114 221 -167
13 -18 23 -33 23 -35 0 -14 -95 -96 -124 -108 -41 -17 -167 -20 -246 -5 -29 6
-55 9 -57 7 -1 -2 21 -19 50 -37 78 -50 233 -176 307 -250 70 -70 145 -164
145 -181 0 -18 -206 -128 -280 -150 -16 -5 -46 -12 -65 -15 -19 -3 -41 -7 -48
-9 -7 -3 -27 4 -45 14 -67 37 -186 72 -225 66 -101 -17 -120 -50 -78 -133 35
-69 149 -172 217 -196 30 -10 60 -21 68 -24 9 -3 12 -1 8 5 -4 6 -38 23 -77
38 -57 22 -80 38 -131 93 -74 78 -106 141 -87 171 12 19 48 31 97 31 33 0 160
-41 192 -61 13 -9 40 -21 59 -28 19 -6 49 -20 65 -31 17 -12 44 -27 60 -35 17
-9 52 -35 79 -60 26 -25 56 -45 66 -45 22 0 60 -33 60 -53 0 -19 -85 -83 -132
-99 -18 -6 -55 -25 -83 -41 -94 -56 -110 -64 -174 -85 -69 -23 -224 -31 -236
-12 -3 6 -15 10 -26 10 -11 0 -36 18 -55 39 -42 47 -64 45 -102 -8 -44 -60
-90 -111 -129 -144 -17 -15 -26 -16 -42 -8 -27 15 -110 103 -111 117 0 6 -7
17 -16 25 -9 7 -29 39 -45 71 -36 72 -61 98 -94 98 -39 0 -170 -70 -269 -144
-49 -36 -92 -66 -96 -66 -14 0 -49 48 -89 124 -30 59 -41 91 -41 124 0 41 5
49 60 106 88 87 89 121 5 144 -23 6 -30 14 -30 33 0 21 6 25 49 31 59 8 133
52 157 93 13 23 18 54 18 130 l1 100 -43 52 c-23 29 -43 49 -45 43 -2 -5 6
-20 18 -32 50 -52 60 -79 60 -163 0 -64 -5 -88 -23 -120 -29 -53 -92 -85 -165
-85 -45 0 -53 -3 -48 -16 3 -9 6 -26 6 -39 0 -19 10 -28 45 -44 61 -27 61 -56
1 -102 -60 -46 -76 -76 -76 -143 0 -45 6 -65 35 -113 19 -32 35 -62 35 -66 0
-15 52 -77 64 -77 7 0 39 21 72 48 66 53 127 92 225 142 84 43 102 37 149 -51
43 -81 70 -120 109 -159 17 -17 31 -37 31 -44 0 -14 41 -36 68 -36 19 0 93 72
157 153 20 26 42 47 47 47 6 0 27 -17 47 -37 40 -42 106 -63 195 -63 50 0 185
43 246 78 19 11 55 31 80 46 25 14 51 26 58 26 18 0 142 89 149 106 8 20 -33
71 -64 79 -14 3 -49 26 -76 51 -27 24 -55 44 -63 44 -8 0 -14 5 -14 10 0 6 -6
10 -12 10 -7 0 -32 13 -55 29 l-43 29 38 5 c41 5 162 47 184 64 7 5 47 28 87
49 41 21 80 43 86 48 21 18 -163 227 -271 310 -22 17 -64 49 -92 71 -28 22
-61 48 -74 57 -22 17 -19 17 85 18 68 0 119 5 140 14 45 19 127 98 127 122 0
40 -162 177 -253 213 -52 21 -56 25 -43 40 8 9 22 38 31 65 9 26 36 79 61 117
33 52 44 79 44 109 0 51 -29 80 -82 80 -21 0 -38 3 -38 6 0 4 25 45 56 91 45
67 54 87 43 94 -8 5 -17 9 -21 9 -4 0 -35 25 -70 55 -34 30 -68 55 -73 55 -29
0 -33 23 -10 54 13 17 35 57 49 89 22 51 26 75 28 176 2 103 -1 122 -21 164
-20 40 -31 51 -89 78 -86 40 -101 46 -137 54 -29 6 -27 8 49 48 l78 41 -4 73
c-4 59 -10 80 -33 114 -42 60 -87 79 -187 79 -59 0 -90 5 -106 16 -23 16 -29
43 -13 59 5 6 11 21 13 34 3 22 -3 25 -62 40 -43 10 -112 15 -205 15 -133 0
-143 -1 -202 -28 -35 -16 -63 -32 -63 -36 0 -4 -7 -11 -15 -14 -11 -4 -19 3
-25 20 -6 14 -16 32 -24 40 -54 54 -195 42 -256 -21 l-33 -34 -38 19 c-143 74
-298 99 -379 62 -25 -11 -66 -29 -92 -41 -26 -12 -64 -32 -83 -45 -47 -32 -72
-24 -185 60 -47 35 -90 64 -96 64 -7 0 -31 -38 -54 -84z"/>
<path d="M2848 3973 c-3 -73 -1 -79 24 -105 15 -16 31 -40 34 -53 7 -29 43
-42 72 -26 29 16 31 15 48 -24 29 -70 12 -187 -36 -255 -22 -30 -25 -40 -12
-40 12 0 51 72 67 127 19 63 19 113 -2 165 -23 61 -29 65 -62 45 -39 -23 -48
-22 -55 6 -3 13 -19 39 -36 58 -30 33 -31 37 -27 107 2 39 0 72 -4 72 -5 0 -9
-35 -11 -77z"/>
<path d="M1949 4002 c15 -28 14 -145 -1 -160 -7 -7 -35 -12 -63 -12 -28 0 -60
-6 -72 -15 -19 -13 -25 -12 -67 10 -120 64 -267 70 -429 18 -48 -16 -85 -32
-81 -35 3 -4 38 5 78 20 64 24 84 27 201 27 127 0 132 -1 202 -34 68 -31 71
-34 62 -58 -5 -13 -9 -46 -9 -73 l0 -49 -60 35 c-137 80 -278 98 -371 47 -60
-32 -58 -43 2 -13 37 20 54 22 143 18 110 -5 180 -29 244 -83 18 -15 36 -25
39 -21 4 3 15 -12 25 -34 38 -83 123 -170 202 -208 35 -17 67 -35 71 -41 3 -6
13 -11 22 -11 13 0 13 3 3 15 -7 8 -18 15 -25 15 -8 0 -15 3 -17 8 -2 4 -35
23 -73 43 -77 40 -115 83 -166 186 -27 55 -30 68 -24 117 10 80 39 106 116
106 70 0 98 10 152 54 23 18 61 43 85 55 42 22 46 22 130 7 48 -8 99 -19 115
-25 43 -17 33 -54 -18 -67 -48 -11 -87 -34 -127 -72 -31 -29 -38 -43 -37 -72
l1 -35 10 42 c11 51 60 94 128 114 25 7 49 16 54 21 28 24 161 -12 198 -54 79
-90 30 -208 -86 -208 -29 0 -14 -60 26 -102 78 -80 98 -109 98 -142 0 -43 -14
-54 -75 -58 l-50 -3 39 -9 c57 -13 90 7 94 58 4 48 -13 90 -44 111 -28 18 -84
92 -84 111 0 7 22 20 49 29 29 9 56 26 65 40 24 37 21 120 -6 158 -34 49 -38
51 -121 77 -42 14 -76 29 -74 35 5 14 99 44 184 57 64 10 78 9 140 -10 92 -29
103 -27 23 4 -56 22 -75 25 -140 20 -41 -3 -91 -10 -110 -16 -19 -6 -50 -15
-68 -21 -26 -9 -40 -7 -68 6 -18 9 -72 21 -119 27 -97 13 -119 7 -210 -61 -27
-21 -58 -41 -68 -45 -17 -5 -18 -2 -13 41 7 59 -4 125 -23 131 -10 3 -11 0 -2
-16z"/>
<path d="M902 3934 c-29 -20 -28 -54 3 -121 14 -29 23 -58 20 -63 -3 -6 -21
-10 -38 -10 -52 0 -71 -9 -91 -43 -25 -42 -33 -168 -16 -258 11 -59 11 -72 -4
-102 -35 -75 -12 -162 70 -262 l34 -42 -45 -13 c-29 -8 -55 -25 -75 -48 -27
-32 -30 -41 -30 -108 0 -40 4 -83 9 -96 11 -25 64 -88 76 -88 4 0 -6 15 -23
34 -16 19 -35 51 -42 71 -17 52 -9 149 16 176 25 28 97 59 138 59 38 0 83 -31
97 -67 8 -22 4 -31 -31 -70 -23 -24 -40 -51 -38 -61 2 -9 18 -27 37 -39 41
-28 129 -31 218 -8 74 20 164 29 196 21 20 -5 26 -14 31 -51 4 -26 18 -58 32
-75 24 -27 31 -30 87 -30 34 0 97 7 140 15 118 23 232 20 268 -6 25 -18 29
-27 29 -70 0 -28 -7 -64 -16 -82 l-17 -32 22 19 c18 16 21 30 21 91 0 46 -5
76 -12 82 -51 38 -180 41 -323 7 -85 -20 -173 -14 -189 13 -6 10 -18 42 -27
73 l-16 55 -89 -1 c-98 -1 -124 -5 -169 -23 -33 -14 -132 -9 -178 8 -38 15
-35 43 11 94 44 49 44 72 2 117 -20 21 -37 30 -60 30 -35 0 -47 11 -110 104
-36 52 -40 65 -40 117 0 33 6 75 14 93 10 25 12 45 5 73 -5 21 -9 80 -9 131 0
101 15 153 49 171 11 6 76 14 143 18 130 6 164 -1 198 -42 13 -15 11 -20 -12
-40 -33 -28 -65 -91 -84 -162 -30 -115 -14 -166 93 -292 47 -55 150 -85 271
-79 90 4 179 31 220 66 11 9 30 24 43 32 12 8 40 30 61 49 l38 33 57 -23 c67
-27 98 -45 133 -76 27 -25 80 -47 80 -34 0 5 -8 11 -17 15 -22 7 -51 26 -76
49 -21 21 -94 56 -116 57 -8 0 -29 11 -48 26 -31 24 -33 24 -33 5 0 -23 -1
-24 -96 -95 -119 -88 -240 -114 -376 -80 -94 23 -113 34 -160 99 -74 103 -81
137 -52 262 17 75 26 92 74 142 38 39 34 53 -20 83 -26 13 -56 18 -122 18
l-88 0 -30 63 c-41 86 -39 104 8 117 20 5 51 11 67 13 17 3 9 5 -20 6 -32 0
-59 -5 -73 -15z"/>
<path d="M3490 3811 c-85 -23 -115 -40 -173 -95 -26 -25 -52 -46 -57 -46 -6 0
-10 -4 -10 -9 0 -4 -18 -21 -40 -36 -22 -15 -38 -30 -35 -33 3 -3 13 2 23 11
10 10 23 17 29 17 6 0 16 7 23 15 28 34 125 45 212 24 56 -13 85 -43 123 -127
l25 -57 85 3 c98 4 97 5 69 -87 -16 -55 -74 -148 -121 -195 -63 -63 -207 -94
-311 -66 -47 13 -216 103 -227 121 -4 5 -30 10 -58 10 -29 1 -65 4 -82 8 l-30
7 27 14 c53 30 137 111 143 141 9 38 20 30 34 -26 9 -35 21 -52 52 -75 48 -34
138 -70 178 -70 38 0 122 29 146 50 11 10 36 26 55 35 34 17 60 39 60 49 0 3
-15 -4 -32 -15 -18 -12 -57 -36 -86 -54 -30 -18 -76 -39 -103 -45 -53 -13 -73
-8 -185 47 -50 24 -52 28 -71 91 -11 36 -25 68 -30 69 -6 2 -20 -18 -31 -44
-41 -96 -172 -186 -244 -168 l-23 6 3 172 c3 156 1 178 -18 227 -23 63 -46 97
-57 86 -4 -4 -3 -10 3 -14 5 -4 19 -25 30 -47 16 -34 19 -66 22 -219 2 -98 0
-186 -4 -195 -4 -9 -8 -18 -8 -21 -2 -8 -38 -62 -71 -106 l-31 -42 -13 43 c-7
24 -19 46 -26 49 -11 4 -11 -2 1 -29 29 -70 8 -141 -63 -211 -66 -64 -89 -74
-180 -74 -80 0 -82 1 -131 40 -39 30 -55 52 -71 95 -25 67 -26 96 -5 138 21
41 39 58 91 83 49 24 46 34 -8 34 -42 0 -59 19 -59 63 0 35 38 115 61 130 10
6 19 15 19 20 0 4 9 17 20 29 l20 21 -39 18 c-25 11 -48 32 -65 60 -14 24 -26
37 -26 28 0 -26 43 -76 94 -111 7 -4 -3 -22 -25 -45 -39 -41 -69 -111 -69
-159 0 -30 31 -74 51 -74 6 0 -10 -19 -36 -43 -43 -38 -48 -48 -52 -94 -4 -35
0 -66 11 -93 9 -22 16 -42 16 -45 0 -8 -53 18 -98 47 -23 15 -64 37 -90 49
-26 11 -63 29 -83 39 -70 35 -177 1 -284 -90 -95 -81 -185 -124 -245 -114 -95
15 -90 11 -84 58 7 46 1 54 -38 61 -26 5 -35 9 -139 59 -114 54 -140 83 -189
208 -47 119 -49 160 -11 238 10 21 16 42 13 45 -12 12 -46 -83 -50 -140 -3
-51 1 -71 25 -126 16 -35 33 -76 36 -91 4 -15 25 -44 46 -65 42 -40 205 -128
259 -139 31 -6 32 -8 32 -54 0 -45 2 -49 31 -59 18 -6 55 -11 83 -11 63 0 156
45 224 108 26 24 78 59 116 79 58 29 77 34 115 30 42 -4 214 -78 226 -97 2 -4
31 -20 62 -35 51 -25 119 -69 133 -86 20 -24 58 -31 137 -24 83 7 85 7 156 64
79 62 193 132 246 150 19 6 75 11 125 11 80 0 98 -4 154 -30 35 -16 104 -43
153 -60 83 -28 100 -30 217 -28 111 1 119 2 62 8 -36 4 -97 8 -136 9 -72 1
-129 18 -304 91 -69 29 -82 31 -165 28 -92 -4 -107 -9 -223 -73 -24 -13 -50
-29 -59 -37 -9 -7 -14 -8 -12 -3 36 76 51 104 62 113 7 6 33 41 58 77 36 53
48 65 64 60 11 -3 70 -9 130 -12 100 -5 115 -8 164 -37 158 -92 197 -106 301
-106 104 0 160 21 226 84 30 28 54 56 54 62 0 6 7 17 15 24 14 12 24 31 54
103 6 15 11 48 11 72 l0 44 -86 3 -86 3 -29 54 c-51 97 -128 140 -229 128 -28
-3 -50 -3 -50 0 0 3 18 23 41 44 67 63 197 90 314 66 39 -8 72 -13 75 -10 10
10 -27 21 -89 28 -36 3 -73 8 -81 10 -8 1 -44 -5 -80 -14z"/>
<path d="M2720 3795 c7 -9 15 -13 17 -11 7 7 -7 26 -19 26 -6 0 -6 -6 2 -15z"/>
<path d="M776 2665 c-61 -17 -93 -40 -117 -85 -47 -86 -5 -208 104 -311 45
-42 50 -36 -78 -79 -104 -34 -118 -55 -92 -130 10 -28 31 -70 46 -93 16 -23
44 -67 64 -97 19 -30 47 -66 61 -79 14 -14 26 -28 26 -32 0 -6 -43 -20 -67
-21 -5 0 -29 -9 -56 -19 -26 -10 -51 -18 -55 -18 -4 1 -30 1 -59 0 l-52 -1 14
-41 c15 -43 70 -123 102 -149 42 -35 124 -90 133 -90 6 0 10 -3 10 -8 0 -4 10
-12 23 -17 33 -15 26 -48 -42 -188 -48 -99 -73 -136 -125 -191 -37 -38 -66
-72 -66 -76 0 -33 195 -150 249 -150 17 0 51 -7 77 -16 34 -11 75 -15 149 -12
97 3 104 5 161 40 32 20 63 44 69 54 11 18 64 74 106 110 40 36 89 91 89 100
0 5 -25 -16 -56 -46 -30 -30 -73 -72 -94 -93 -22 -21 -47 -48 -57 -60 -10 -12
-42 -38 -72 -57 -49 -31 -63 -34 -142 -38 -61 -3 -104 0 -141 11 -29 9 -67 18
-84 21 -74 12 -233 104 -234 135 0 8 19 33 43 55 24 23 57 61 74 86 39 58 133
256 133 281 0 17 8 19 86 19 106 0 186 20 284 70 41 22 76 38 77 36 6 -6 -26
-85 -51 -125 -36 -57 -260 -273 -299 -288 -18 -8 -38 -22 -45 -34 -12 -19 -11
-19 29 3 57 31 329 289 329 312 0 5 6 17 13 25 8 9 20 37 27 64 7 26 17 50 22
53 4 3 6 9 3 14 -3 5 -50 -14 -105 -41 -120 -61 -188 -79 -286 -79 -64 0 -83
4 -132 30 -124 66 -209 147 -235 224 l-15 43 57 2 c93 3 270 68 386 140 33 21
65 40 72 42 6 2 36 27 65 54 29 28 67 59 83 71 128 89 165 112 201 122 58 17
77 15 108 -9 15 -12 29 -19 32 -16 13 13 -52 47 -89 47 -44 0 -107 -19 -107
-32 0 -4 -5 -8 -12 -8 -6 0 -37 -19 -67 -43 -31 -24 -67 -50 -81 -59 -14 -9
-50 -39 -80 -67 -30 -28 -63 -53 -74 -57 -10 -3 -45 -23 -78 -45 -33 -21 -75
-43 -95 -50 -50 -16 -73 4 -162 147 -65 103 -74 125 -75 167 l-1 48 105 40
c142 53 180 44 180 -42 0 -39 4 -50 21 -60 33 -17 95 -5 179 33 66 31 136 60
235 97 28 10 27 11 -15 6 -25 -3 -46 -10 -48 -15 -2 -6 -11 -10 -20 -10 -8 0
-34 -9 -56 -19 -23 -10 -57 -26 -76 -34 -19 -8 -56 -24 -82 -36 -82 -36 -128
-21 -128 42 0 60 -10 76 -47 83 -46 9 -147 108 -175 171 -25 56 -28 137 -8
178 19 37 86 75 136 77 55 1 139 -25 224 -72 40 -22 76 -40 81 -40 4 0 9 -3
11 -8 2 -4 27 -20 57 -35 30 -15 49 -22 43 -15 -6 7 -28 22 -49 33 -21 11 -51
29 -68 41 -42 32 -174 92 -215 99 -19 3 -39 10 -44 16 -12 11 -7 11 -70 -6z"/>
<path d="M2912 2594 c-2 -31 17 -84 31 -84 12 0 8 27 -7 40 -8 6 -17 26 -19
43 l-4 32 -1 -31z"/>
<path d="M1365 2551 c74 -35 82 -41 98 -82 l18 -44 -36 -31 c-59 -52 -124 -66
-263 -59 -66 3 -135 10 -154 15 -39 12 -54 13 -44 3 19 -19 110 -30 234 -29
119 1 143 4 182 23 25 12 51 31 58 42 18 30 27 26 30 -11 5 -71 15 -94 61
-135 25 -24 51 -43 56 -43 6 0 42 10 82 21 39 12 79 19 88 16 21 -9 35 -49 35
-101 0 -59 -15 -73 -85 -80 -77 -8 -251 -89 -319 -148 -60 -53 -151 -118 -191
-138 -16 -8 -52 -29 -78 -47 -27 -17 -91 -46 -143 -64 -52 -19 -94 -37 -94
-41 0 -7 45 6 144 42 59 21 99 43 126 69 8 7 29 20 46 27 18 7 38 19 46 27 7
7 31 24 54 38 23 13 63 43 89 67 26 23 52 42 59 42 7 0 36 -22 66 -48 l53 -48
-21 -40 c-38 -69 -52 -148 -51 -284 l2 -125 8 130 c9 150 24 231 50 273 16 28
20 30 56 21 100 -23 173 -6 233 56 30 30 32 38 28 79 -6 52 -12 49 127 66 50
6 115 17 145 24 187 45 349 52 480 21 53 -13 121 -19 230 -20 106 -1 164 -6
183 -15 26 -13 75 -86 64 -96 -2 -3 -27 0 -55 6 -28 6 -119 15 -204 19 l-153
7 -51 -28 c-56 -31 -141 -38 -189 -16 -22 10 -32 9 -60 -6 -28 -15 -46 -17
-101 -11 -37 4 -77 12 -90 17 -18 8 -27 6 -45 -11 -13 -11 -26 -21 -31 -21 -4
0 -45 -30 -90 -67 -94 -76 -108 -89 -108 -98 0 -4 -9 -18 -20 -32 -11 -14 -20
-30 -20 -35 0 -6 20 17 44 50 42 56 79 83 94 67 4 -4 9 -61 12 -128 4 -74 11
-133 20 -150 18 -36 67 -57 152 -64 90 -8 100 -15 65 -51 -37 -38 -38 -97 -2
-114 13 -6 27 -18 30 -27 3 -9 14 -27 25 -41 14 -18 20 -21 20 -9 0 8 -20 37
-45 62 -25 26 -45 55 -45 65 0 9 11 34 25 54 40 59 39 61 -80 73 -33 4 -76 16
-97 26 -47 24 -58 60 -58 192 0 54 -4 107 -10 117 -8 15 -3 25 32 54 23 20 48
36 55 36 7 0 13 3 13 8 0 14 52 31 69 23 30 -15 164 -13 196 3 21 11 33 12 42
4 7 -5 42 -13 78 -16 59 -4 68 -2 107 24 38 25 53 29 133 32 50 2 142 -3 205
-12 63 -9 151 -16 197 -16 106 0 108 -4 117 -165 6 -105 12 -131 47 -224 43
-116 48 -166 24 -266 -18 -73 -19 -147 -3 -163 14 -14 107 -16 128 -2 10 7 -5
9 -50 7 l-64 -2 -8 48 c-10 58 15 154 69 262 40 80 69 115 95 115 10 0 18 5
18 10 0 13 -13 13 -43 -1 -14 -6 -41 -41 -63 -79 l-38 -68 -19 52 c-10 28 -30
83 -44 121 -20 54 -27 98 -32 195 -8 159 -15 170 -112 170 l-66 0 -11 39 c-7
21 -19 44 -27 51 -11 9 -15 32 -15 79 0 97 -5 107 -64 135 -122 58 -127 105
-13 154 36 16 149 16 165 0 9 -9 12 -9 12 0 0 32 -99 41 -173 16 -48 -16 -107
-65 -107 -88 0 -20 44 -59 94 -84 60 -30 76 -55 76 -117 0 -59 -9 -78 -30 -65
-8 6 -80 10 -160 10 -110 0 -169 5 -245 22 -65 14 -132 21 -193 20 -87 -1
-121 -6 -302 -47 -36 -9 -103 -19 -150 -24 -47 -5 -92 -13 -102 -16 -11 -4
-18 0 -22 13 -4 10 -18 25 -32 32 -14 8 -23 19 -19 28 3 7 5 33 5 56 l0 43 49
6 c74 9 157 52 192 100 29 40 38 90 19 102 -5 3 -45 1 -88 -5 -65 -10 -88 -9
-139 4 -79 21 -116 13 -153 -33 -35 -42 -38 -74 -9 -95 22 -15 22 -15 -7 -21
-16 -4 -39 -10 -51 -15 -17 -7 -31 -2 -62 20 -48 35 -57 51 -64 111 -14 120
-54 184 -129 208 -21 7 -40 17 -43 22 -4 5 -16 9 -28 8 -13 0 11 -15 58 -38z
m493 -185 c40 -11 68 -12 110 -5 94 15 102 13 102 -21 0 -48 -52 -96 -135
-125 -91 -32 -107 -31 -128 5 -14 22 -26 30 -47 30 -39 0 -80 20 -80 38 0 21
42 81 60 86 30 8 66 5 118 -8z m-33 -322 c20 -8 55 -85 55 -119 0 -63 -114
-123 -209 -109 -60 9 -78 18 -128 70 -24 24 -47 44 -53 44 -29 0 0 22 79 59
119 55 207 74 256 55z"/>
<path d="M950 2391 c0 -5 5 -13 10 -16 6 -3 10 -2 10 4 0 5 -4 13 -10 16 -5 3
-10 2 -10 -4z"/>
<path d="M2300 2237 c-34 -16 -77 -47 -65 -47 6 0 25 9 43 20 44 27 62 25 127
-10 30 -16 57 -30 59 -30 2 0 21 14 42 31 49 39 63 36 211 -36 113 -56 152
-65 171 -42 8 10 3 12 -27 9 -29 -3 -61 8 -150 52 -119 59 -177 70 -201 40
-30 -35 -47 -35 -105 -4 -61 33 -68 34 -105 17z"/>
<path d="M2187 2166 c-3 -8 -31 -23 -61 -35 -58 -21 -98 -17 -109 11 -4 8 -6
9 -6 1 -1 -18 28 -43 52 -43 41 0 92 20 127 50 22 20 29 30 18 30 -9 0 -18 -6
-21 -14z"/>
<path d="M3593 2138 c-210 -41 -319 -76 -310 -102 2 -6 19 -14 38 -19 128 -31
186 -54 224 -88 41 -37 51 -44 190 -119 44 -24 95 -56 113 -72 18 -15 54 -39
81 -52 26 -14 78 -50 116 -80 67 -56 85 -65 85 -46 0 6 -5 10 -11 10 -6 0 -38
23 -72 51 -33 28 -86 63 -116 79 -31 16 -70 42 -87 58 -17 16 -66 48 -110 70
-119 59 -130 66 -197 125 -31 27 -171 77 -215 77 -44 0 -20 18 56 43 43 14
107 31 143 37 35 5 82 15 104 20 61 15 274 12 331 -4 69 -20 139 -27 126 -14
-6 6 -28 12 -49 14 -21 2 -58 8 -83 14 -81 17 -261 16 -357 -2z"/>
<path d="M3000 1711 c0 -5 4 -12 9 -15 5 -3 19 -25 31 -48 12 -24 40 -63 62
-88 61 -69 60 -69 106 -163 48 -102 57 -180 24 -210 -17 -16 -22 -14 -70 20
-29 20 -55 34 -58 31 -7 -8 93 -78 110 -78 28 0 46 42 46 105 0 93 -58 204
-180 344 -17 19 -30 38 -30 44 0 5 -11 22 -25 39 -14 16 -25 25 -25 19z"/>
<path d="M1874 1615 c-4 -11 -11 -22 -15 -25 -3 -3 -30 -47 -58 -97 -42 -77
-53 -108 -66 -185 -18 -109 -17 -108 -6 -108 4 0 13 40 18 90 11 95 43 174
111 273 18 26 31 54 29 60 -3 7 -8 4 -13 -8z"/>
<path d="M1881 1182 c-1 -35 30 -106 59 -134 10 -9 33 -25 51 -35 92 -50 162
-111 189 -163 10 -19 27 -45 38 -58 l20 -22 34 37 c18 21 40 53 47 71 7 17 17
32 22 32 23 0 56 190 40 230 -8 22 -10 18 -10 -26 -2 -100 -20 -162 -73 -245
-57 -90 -56 -90 -112 0 -30 47 -55 71 -129 120 -51 34 -100 66 -109 73 -18 12
-42 62 -57 118 l-9 35 -1 -33z"/>
<path d="M1477 1126 c-10 -15 -16 -33 -13 -39 3 -9 5 -9 5 1 1 6 6 12 12 12 7
0 10 -52 9 -157 -1 -87 -1 -164 -1 -170 1 -21 62 -15 147 13 90 31 245 106
264 129 7 8 18 15 26 15 7 0 17 6 21 14 4 7 18 18 31 25 12 6 22 16 22 21 0
17 -14 11 -45 -18 -84 -76 -300 -180 -412 -198 l-43 -6 -2 193 c-3 190 -3 193
-21 165z"/>
</g>
</svg>
